<?xml version="1.0" standalone="no"?>
<!DOCTYPE svg PUBLIC "-//W3C//DTD SVG 20010904//EN"
 "http://www.w3.org/TR/2001/REC-SVG-20010904/DTD/svg10.dtd">
<svg version="1.0" xmlns="http://www.w3.org/2000/svg"
 width="451.0pt" height="415.0pt" viewBox="0 0 451.0 415.0"
 preserveAspectRatio="xMidYMid meet">
<g transform="translate(0.0,415.0) scale(0.1,-0.1)"
fill="#ffffff" stroke="none">
<path d="M2210 4003 c-14 -2 -88 -8 -165 -13 -201 -13 -318 -29 -445 -60 -19
-5 -66 -14 -104 -20 -38 -6 -87 -17 -110 -25 -22 -8 -51 -15 -63 -15 -12 0
-25 -4 -28 -10 -3 -5 -15 -10 -26 -10 -16 0 -135 -35 -204 -60 -11 -4 -47 -15
-80 -25 -33 -10 -64 -22 -70 -25 -5 -4 -37 -15 -70 -24 -33 -10 -79 -27 -103
-37 -24 -11 -57 -22 -73 -26 -16 -3 -32 -10 -35 -14 -3 -5 -14 -9 -25 -9 -10
0 -19 -4 -19 -10 0 -5 -6 -10 -14 -10 -8 0 -43 -13 -78 -29 -35 -16 -85 -38
-113 -50 -27 -12 -62 -27 -77 -34 -16 -6 -28 -15 -28 -19 0 -5 -6 -8 -13 -8
-14 0 -126 -56 -141 -70 -9 -9 2 -61 24 -115 18 -44 40 -120 40 -137 0 -10 5
-18 10 -18 6 0 10 -9 10 -20 0 -11 4 -28 9 -38 5 -9 17 -42 26 -72 9 -30 19
-64 24 -75 5 -11 21 -60 37 -110 15 -49 31 -94 35 -100 3 -5 10 -27 13 -49 4
-21 11 -46 16 -55 5 -9 16 -43 25 -76 9 -33 21 -69 25 -80 5 -11 21 -58 35
-105 15 -47 31 -93 36 -102 5 -10 9 -25 9 -33 0 -8 4 -23 9 -33 5 -9 21 -57
37 -107 15 -49 31 -94 35 -100 4 -5 10 -31 14 -57 4 -27 11 -48 16 -48 5 0 9
-9 9 -20 0 -11 4 -28 9 -38 5 -9 22 -57 37 -107 15 -49 31 -94 35 -100 4 -5
10 -29 14 -52 4 -24 11 -45 16 -49 5 -3 9 -18 9 -35 0 -16 5 -29 10 -29 6 0
10 -6 10 -14 0 -14 43 -157 60 -201 24 -60 40 -113 40 -128 0 -9 5 -17 10 -17
6 0 10 -10 10 -22 1 -41 55 -181 75 -192 11 -6 25 -17 33 -24 8 -7 32 -22 54
-33 34 -17 83 -47 194 -116 10 -7 33 -20 51 -28 17 -9 39 -25 49 -36 9 -10 21
-19 26 -19 5 0 63 -33 129 -73 66 -39 134 -80 151 -90 16 -10 37 -24 45 -32 8
-8 19 -15 24 -15 6 0 37 -18 69 -40 33 -22 69 -44 82 -49 13 -5 61 -34 107
-65 47 -31 91 -56 98 -56 7 0 13 -4 13 -8 0 -5 18 -17 40 -28 22 -10 40 -22
40 -26 0 -5 5 -8 12 -8 6 0 27 -12 47 -27 35 -27 95 -37 109 -18 8 11 38 31
62 42 8 4 42 24 76 45 34 21 64 38 68 38 4 0 16 9 28 19 11 11 45 32 74 47 30
15 54 31 54 36 0 4 4 8 9 8 9 0 164 90 186 108 15 11 167 102 172 102 2 0 19
11 36 24 18 14 55 36 82 51 28 14 100 57 160 96 61 38 125 77 143 86 17 8 32
19 32 23 0 4 11 11 25 14 14 4 25 11 25 16 0 6 6 10 13 10 41 0 85 70 119 190
20 73 61 206 69 225 5 11 15 45 24 75 9 30 21 63 26 72 5 10 9 26 9 36 0 10 3
22 7 26 9 9 43 117 43 139 0 9 3 17 8 17 8 0 27 56 37 113 4 20 11 40 16 43 5
3 9 15 9 28 0 12 4 26 8 32 5 5 17 38 26 74 18 63 30 98 46 130 4 9 11 35 15
58 4 23 11 44 16 48 5 3 9 16 9 29 0 13 5 27 10 30 6 3 10 15 10 26 0 10 4 19
9 19 5 0 12 21 16 46 4 26 10 54 15 63 4 9 16 43 25 76 10 33 21 68 26 77 5
10 9 26 9 36 0 10 3 22 6 25 11 11 43 111 44 135 0 12 5 22 10 22 6 0 10 8 10
18 1 20 34 119 44 129 3 3 6 15 6 25 0 10 4 26 9 36 4 9 20 55 35 102 14 47
45 142 67 212 23 70 39 133 36 140 -2 7 -31 26 -63 43 -33 16 -66 34 -74 40
-8 7 -31 18 -50 25 -19 8 -72 31 -116 52 -45 21 -85 38 -88 38 -3 0 -28 10
-54 21 -97 44 -110 49 -121 49 -6 0 -19 4 -29 9 -33 17 -68 30 -127 47 -33 9
-64 20 -70 24 -5 3 -37 15 -70 25 -33 10 -69 21 -80 25 -11 4 -60 20 -110 35
-49 15 -99 31 -110 35 -11 5 -33 11 -50 13 -16 3 -57 12 -90 21 -32 9 -84 21
-115 26 -30 5 -77 14 -105 20 -27 7 -90 16 -140 22 -49 5 -98 14 -107 19 -10
5 -60 9 -111 9 -52 0 -96 2 -99 5 -6 6 -224 13 -258 8z m360 -248 c96 -9 189
-20 206 -25 17 -6 43 -10 57 -10 15 0 35 -4 45 -9 9 -6 49 -15 87 -20 39 -6
88 -15 110 -20 81 -19 211 -53 230 -61 11 -4 47 -15 80 -25 33 -9 68 -20 77
-26 10 -5 25 -9 33 -9 8 0 23 -4 33 -9 9 -5 44 -17 77 -27 33 -10 64 -22 70
-26 5 -4 19 -8 31 -8 13 0 25 -4 29 -9 3 -5 20 -13 37 -17 18 -3 39 -10 48
-14 28 -15 110 -50 115 -50 6 0 71 -28 141 -61 22 -10 46 -19 52 -19 7 0 12
-4 12 -10 0 -5 7 -10 15 -10 21 0 19 -30 -10 -116 -14 -41 -25 -83 -25 -94 0
-11 -4 -20 -8 -20 -8 0 -42 -105 -42 -131 0 -8 -4 -19 -8 -24 -5 -6 -21 -50
-36 -100 -16 -49 -32 -98 -37 -107 -5 -10 -9 -27 -9 -37 0 -11 -4 -22 -9 -26
-6 -3 -13 -26 -17 -50 -3 -25 -10 -48 -15 -51 -5 -3 -9 -16 -9 -30 0 -13 -4
-24 -10 -24 -5 0 -10 -11 -10 -25 0 -14 -4 -25 -9 -25 -5 0 -12 -22 -16 -50
-4 -27 -11 -52 -16 -56 -5 -3 -9 -16 -9 -30 0 -13 -4 -24 -9 -24 -5 0 -12 -21
-16 -47 -4 -27 -10 -52 -14 -58 -5 -5 -14 -31 -22 -57 -7 -27 -17 -48 -21 -48
-4 0 -7 -3 -6 -7 3 -12 -12 -83 -22 -102 -4 -9 -16 -43 -25 -76 -10 -33 -22
-70 -26 -82 -5 -13 -13 -33 -18 -45 -4 -13 -16 -50 -26 -83 -9 -33 -21 -69
-25 -80 -4 -11 -31 -94 -60 -185 -28 -91 -56 -173 -61 -182 -5 -10 -9 -27 -9
-38 0 -11 -4 -20 -9 -20 -5 0 -12 -21 -16 -47 -10 -66 -33 -94 -123 -147 -42
-25 -82 -50 -89 -56 -7 -5 -15 -10 -18 -10 -3 0 -31 -16 -61 -35 -30 -19 -58
-35 -63 -35 -5 0 -16 -6 -23 -12 -8 -7 -23 -18 -33 -25 -11 -6 -56 -33 -100
-60 -44 -26 -87 -52 -96 -58 -9 -5 -35 -20 -57 -32 -22 -13 -61 -36 -85 -53
-25 -16 -48 -30 -52 -30 -3 0 -21 -11 -39 -25 -18 -14 -38 -25 -44 -25 -7 0
-12 -4 -12 -10 0 -5 -4 -10 -10 -10 -5 0 -39 -18 -75 -40 -36 -22 -70 -40 -75
-40 -6 0 -10 -4 -10 -8 0 -5 -25 -22 -56 -38 -31 -16 -58 -32 -60 -36 -3 -4
-23 4 -44 17 -22 14 -44 25 -50 25 -5 0 -10 5 -10 10 0 6 -7 10 -15 10 -8 0
-15 4 -15 8 0 4 -15 15 -32 23 -36 17 -162 92 -248 148 -65 42 -128 78 -152
87 -10 3 -18 10 -18 15 0 5 -5 9 -12 9 -6 0 -26 11 -44 25 -18 14 -35 25 -39
25 -3 0 -48 27 -100 60 -52 33 -97 60 -100 60 -3 0 -31 16 -61 35 -30 19 -59
35 -64 35 -6 0 -10 5 -10 10 0 6 -6 10 -14 10 -8 0 -21 6 -28 12 -7 7 -25 19
-41 27 -39 21 -87 65 -87 82 0 16 -28 105 -41 131 -5 10 -9 25 -9 33 0 8 -4
23 -9 33 -13 24 -41 117 -41 136 0 9 -4 16 -10 16 -5 0 -10 8 -10 18 0 17 -20
88 -39 137 -5 11 -20 58 -35 105 -15 47 -31 94 -35 105 -5 11 -17 49 -27 85
-9 36 -21 70 -24 75 -4 6 -10 26 -14 45 -5 30 -22 80 -56 165 -4 11 -16 49
-26 85 -9 36 -21 69 -26 75 -4 5 -8 19 -8 31 0 13 -4 26 -10 29 -5 3 -12 28
-16 55 -4 28 -10 50 -15 50 -5 0 -9 7 -9 15 0 8 -4 23 -9 33 -12 24 -41 125
-41 145 0 10 -4 17 -10 17 -5 0 -10 9 -10 20 0 11 -4 28 -9 38 -13 24 -41 117
-41 136 0 9 -4 16 -10 16 -5 0 -10 8 -10 18 0 18 -27 106 -41 134 -5 10 -9 25
-9 33 0 8 -4 23 -9 33 -6 9 -17 44 -26 77 -9 33 -21 68 -26 78 -7 13 -5 19 8
24 10 4 20 9 23 13 3 3 52 26 110 49 58 24 123 52 145 62 22 9 60 24 85 32 25
8 59 21 75 27 59 24 71 29 125 46 30 9 64 20 75 24 44 17 83 29 140 45 33 9
69 19 80 24 22 9 105 31 145 38 14 2 34 8 45 13 29 11 112 29 175 36 30 4 60
10 65 14 13 10 157 30 329 45 39 3 72 8 75 10 10 11 308 4 471 -10z"/>
<path d="M1820 3276 c-5 -4 -308 -15 -452 -16 l-38 0 0 -50 c0 -45 3 -52 26
-60 14 -6 48 -10 75 -10 l49 0 0 -604 0 -603 -47 -7 c-27 -4 -65 -10 -85 -13
-37 -5 -38 -6 -38 -49 l0 -44 302 2 c284 3 303 4 306 21 2 10 1 29 -2 42 -5
21 -14 24 -126 36 l-120 13 3 215 2 216 139 2 c77 2 155 8 173 14 29 9 37 8
53 -6 13 -12 43 -19 90 -23 l70 -5 0 -601 0 -601 -53 -13 c-29 -6 -67 -12 -85
-12 -32 0 -32 0 -32 -50 l0 -50 105 0 c134 -1 300 -1 416 0 l90 0 -3 48 -3 47
-60 6 c-33 3 -88 10 -121 14 l-62 8 0 208 c-1 150 3 211 11 216 7 5 77 9 156
11 79 2 152 7 162 12 10 6 26 10 36 10 10 0 31 7 47 15 15 8 35 15 43 15 9 0
30 12 47 28 18 15 44 36 60 47 38 27 126 139 126 160 0 9 4 24 9 33 31 59 29
241 -4 338 -37 110 -144 201 -273 234 -26 7 -150 11 -316 10 l-274 0 44 47
c48 51 108 165 118 223 9 56 8 141 -3 195 -21 109 -32 137 -69 177 -20 22 -40
46 -45 53 -6 12 -64 43 -122 66 -58 22 -311 50 -325 35z m163 -128 c26 -6 47
-15 47 -20 0 -4 7 -8 14 -8 8 0 27 -11 41 -24 15 -14 30 -26 34 -28 15 -7 54
-72 63 -106 41 -163 -3 -357 -95 -426 -65 -47 -107 -56 -267 -56 l-150 0 1
331 c0 330 0 330 22 339 33 13 235 11 290 -2z m708 -792 c65 -15 147 -59 157
-84 3 -9 14 -26 24 -36 42 -45 62 -216 37 -311 -15 -58 -44 -117 -74 -153 -58
-69 -190 -101 -360 -87 l-84 7 0 329 1 329 26 6 c15 3 32 7 37 9 27 9 187 3
236 -9z"/>
</g>
</svg>
